<?xml version="1.0" encoding="utf-8"?>
<!-- Generator: Adobe Illustrator 24.1.0, SVG Export Plug-In . SVG Version: 6.00 Build 0)  -->
<svg version="1.1" id="Layer_1" xmlns="http://www.w3.org/2000/svg" xmlns:xlink="http://www.w3.org/1999/xlink" x="0px" y="0px"
	 viewBox="0 0 22.5 22.5" style="enable-background:new 0 0 22.5 22.5;" xml:space="preserve">
<style type="text/css">
	.st0{fill:#FFFFFF;}
</style>
<g id="Layer_2_1_">
	<g id="Site_1">
		<path class="st0" d="M11.2,0C8.2,0,7.8,0,6.6,0.1c-3.5,0.2-6.4,3-6.5,6.5C0,7.8,0,8.2,0,11.2s0,3.4,0.1,4.6c0.2,3.5,3,6.4,6.5,6.5
			c1.2,0.1,1.6,0.1,4.6,0.1s3.4,0,4.6-0.1c3.5-0.2,6.4-3,6.5-6.5c0.1-1.2,0.1-1.6,0.1-4.6s0-3.4-0.1-4.6c-0.2-3.5-3-6.4-6.5-6.5
			C14.7,0,14.3,0,11.2,0z M15,6.6h-1.8c-0.6,0-1,0.2-1,0.8v1H15l-0.2,2.8h-2.6v7.5H9.4v-7.5H7.5V8.4h1.9V6.6c0-1.9,1-2.9,3.2-2.9H15
			V6.6z M11.3,1.4c3.2,0,3.2,0,4.4,0.1C18.5,1.6,20.9,4,21,6.9c0,1.1,0.1,1.2,0.1,4.3s0,3.2-0.1,4.4c-0.1,2.9-2.5,5.3-5.4,5.4
			c-1.1,0-1.2,0.1-4.4,0.1S8,21,6.9,21c-2.9-0.1-5.3-2.5-5.4-5.4c-0.1-1.1-0.1-1.1-0.1-4.3s0-3.2,0.1-4.4C1.6,4,3.9,1.6,6.9,1.5
			C8,1.4,8.1,1.4,11.3,1.4z"/>
	</g>
</g>
</svg>
