<svg xmlns="http://www.w3.org/2000/svg" viewBox="0 0 22.5 22.5"><defs><style>.cls-1{fill:#fff;}</style></defs><g id="Layer_2" data-name="Layer 2"><g id="Site_1" data-name="Site 1"><path class="cls-1" d="M11.25,2c3,0,3.36,0,4.55.06,3.05.14,4.47,1.59,4.61,4.62.05,1.18.06,1.54.06,4.54s0,3.36-.06,4.55c-.14,3-1.56,4.47-4.61,4.61-1.19.05-1.54.06-4.55.06s-3.36,0-4.55-.06c-3.05-.14-4.47-1.59-4.61-4.61C2,14.61,2,14.25,2,11.25s0-3.36.06-4.55c.14-3,1.56-4.47,4.61-4.61C7.89,2,8.25,2,11.25,2Zm0-2C8.2,0,7.81,0,6.62.07A6.86,6.86,0,0,0,.07,6.61C0,7.81,0,8.19,0,11.25s0,3.44.07,4.64a6.86,6.86,0,0,0,6.54,6.54c1.2.06,1.59.07,4.64.07s3.44,0,4.64-.07a6.86,6.86,0,0,0,6.54-6.54c.06-1.2.07-1.58.07-4.64s0-3.44-.07-4.63A6.86,6.86,0,0,0,15.89.07C14.69,0,14.31,0,11.25,0ZM15,6.56H13.2c-.58,0-1,.24-1,.84v1H15l-.22,2.81H12.19v7.5H9.38v-7.5H7.5V8.44H9.38V6.64c0-1.9,1-2.89,3.24-2.89H15Z"/></g></g></svg>