<?xml version="1.0" encoding="utf-8"?>
<!-- Generator: Adobe Illustrator 24.1.0, SVG Export Plug-In . SVG Version: 6.00 Build 0)  -->
<svg version="1.1" id="Layer_1" xmlns="http://www.w3.org/2000/svg" xmlns:xlink="http://www.w3.org/1999/xlink" x="0px" y="0px"
	 viewBox="0 0 22.5 22.5" style="enable-background:new 0 0 22.5 22.5;" xml:space="preserve">
<style type="text/css">
	.st0{fill:#FFFFFF;}
</style>
<g id="Layer_2_1_">
	<g id="Site_1">
		<path class="st0" d="M11.3,1.4c3.2,0,3.2,0,4.4,0.1C18.5,1.6,20.9,4,21,6.9c0,1.1,0.1,1.2,0.1,4.3s0,3.2-0.1,4.4
			c-0.1,2.9-2.5,5.3-5.4,5.4c-1.1,0-1.2,0.1-4.4,0.1S8,21,6.9,21c-2.9-0.1-5.3-2.5-5.4-5.4c-0.1-1.1-0.1-1.1-0.1-4.3s0-3.2,0.1-4.4
			C1.6,4,3.9,1.6,6.9,1.5C8,1.4,8.1,1.4,11.3,1.4z M11.2,0C8.2,0,7.8,0,6.6,0.1c-3.5,0.2-6.4,3-6.5,6.5C0,7.8,0,8.2,0,11.2
			s0,3.4,0.1,4.6c0.2,3.5,3,6.4,6.5,6.5c1.2,0.1,1.6,0.1,4.6,0.1s3.4,0,4.6-0.1c3.5-0.2,6.4-3,6.5-6.5c0.1-1.2,0.1-1.6,0.1-4.6
			s0-3.4-0.1-4.6c-0.2-3.5-3-6.4-6.5-6.5C14.7,0,14.3,0,11.2,0z M12.4,6.2c-2.8-0.7-5.6,1.1-6.2,3.9c-0.7,2.8,1.1,5.6,3.9,6.2
			c2.8,0.7,5.6-1.1,6.2-3.9c0.2-0.8,0.2-1.6,0-2.4C15.8,8.2,14.3,6.7,12.4,6.2z M11.8,15c-2,0.3-4-1.1-4.3-3.2c-0.3-2,1.1-4,3.2-4.3
			c2-0.3,4,1.1,4.3,3.2c0.1,0.4,0.1,0.7,0,1.1C14.8,13.5,13.5,14.8,11.8,15z M17.3,4c-0.7,0-1.4,0.6-1.4,1.3s0.6,1.4,1.3,1.4
			s1.4-0.6,1.4-1.3c0,0,0,0,0,0C18.6,4.6,18,4,17.3,4L17.3,4z"/>
	</g>
</g>
</svg>
