<svg xmlns="http://www.w3.org/2000/svg" viewBox="0 0 100 184.17"><defs><style>.cls-1{fill:#ffe32b;}.cls-2{fill:#00c4ba;}</style></defs><g id="Layer_2" data-name="Layer 2"><g id="Site_1" data-name="Site 1"><path class="cls-1" d="M39.21,45.25c7.14,0,9.75-2.89,9.75-11,0-8.39-2.61-11.19-9.75-11.19H34.58V45.25Zm10,35.5L41.33,53.06H34.58V80.75H26.09V15.15H39.31c13,0,18.43,6.17,18.43,18.81.09,9.55-3,15-8.11,17.66l8.59,29.13Z"/><rect class="cls-1" x="70.86" y="15.13" width="8.49" height="65.61"/><polygon class="cls-2" points="69.67 99.96 59.94 99.96 59.94 91.95 87.9 91.95 87.9 99.96 78.16 99.96 78.16 157.56 69.67 157.56 69.67 99.96"/><path class="cls-2" d="M68.73,184.17a11.12,11.12,0,1,1,11.12-11.12A11.13,11.13,0,0,1,68.73,184.17Zm0-20.15a9,9,0,1,0,9,9A9,9,0,0,0,68.73,164Z"/><polygon class="cls-2" points="9.83 174.01 9.9 105.84 12.88 105.85 12.81 171.04 30.41 171.03 30.41 174.01 9.83 174.01"/><polygon class="cls-2" points="81.77 174.03 81.77 171.05 96.89 171.02 97.02 3.01 12.82 2.98 12.76 66.52 9.78 66.51 9.85 0 100 0.04 99.86 174 81.77 174.03"/><path class="cls-2" d="M72.54,182.75,69,179.17l-3.57,3.58-1.47-1.48,3.57-3.57-3.41-3.41-3.54,3.55-1.48-1.48,3.55-3.54-3.55-3.55,1.48-1.47,3.54,3.54,3.2-3.19-3.39-3.4,1.47-1.47,3.39,3.39,3.82-3.81L74,164.33l-3.81,3.82,3.4,3.4,3.76-3.75,1.48,1.47L75.11,173l3.76,3.75-1.48,1.48-3.76-3.76-3.19,3.2L74,181.27Zm-7-9.93,3.4,3.4,3.2-3.19-3.41-3.41Z"/><polygon class="cls-2" points="26.47 95.89 32.1 95.02 15.57 70.75 0 70.75 15.85 89.03 5.9 89.03 36.65 115.54 26.47 95.89"/><path class="cls-2" d="M37.8,90.54h-.74a22.86,22.86,0,0,0-3.81.29s4.66,7,4.81,7.06c4.72.24,6.68,3.3,6.68,10.78v31.75c0,7.72-2.13,11-7.31,11s-7.4-3.28-7.4-11V115.31l-8.13-7c0,.12,0,.22,0,.34v29.62c0,13,4.72,20.58,15,20.58h1c10.27,0,15-6.36,15-19.39V109.83c0-13.12-5.18-19.29-15.08-19.29"/><polygon class="cls-2" points="9.9 98.5 9.9 105.85 12.88 105.85 12.88 101.06 9.9 98.5"/><path class="cls-2" d="M37.33,174.44l7.16-4.74-.57,2,4.62-2.18-.89,3.17-5.88,2,.14-1.2Zm18.59-11.71H52v2.75l-22.14,2.44v9.13l21.81,1.5.17,2.71h4.09Z"/></g></g></svg>