<svg xmlns="http://www.w3.org/2000/svg" viewBox="0 0 65.34 45"><defs><style>.cls-1{fill:#ffe22b;}.cls-2{fill:#00c4bb;}</style></defs><g id="Layer_2" data-name="Layer 2"><g id="Layer_1-2" data-name="Layer 1"><path class="cls-1" d="M10.17,20.77c2.89,0,3.94-1.17,3.94-4.45s-1-4.52-3.94-4.52H8.3v9Zm4.06,14.35L11,23.93H8.3V35.12H4.87V8.6h5.34c5.26,0,7.45,2.5,7.45,7.6,0,3.86-1.21,6.05-3.28,7.14l3.47,11.78Z"/><rect class="cls-1" x="22.97" y="8.6" width="3.43" height="26.52"/><polygon class="cls-2" points="53.11 11.84 49.17 11.84 49.17 8.6 60.48 8.6 60.48 11.84 56.54 11.84 56.54 35.12 53.11 35.12 53.11 11.84"/><path class="cls-2" d="M37.66,45a4.22,4.22,0,1,1,4.21-4.22A4.22,4.22,0,0,1,37.66,45Zm-1-.86a3.63,3.63,0,0,0,2.09,0l-1-1ZM34.6,42.48A3.55,3.55,0,0,0,36,43.84l1.27-1.28L35.87,41.2Zm3.65.08,1.22,1.21a3.62,3.62,0,0,0,1.25-1.3l-1.19-1.19Zm-1.86-1.87,1.35,1.36L39,40.77l-1.36-1.36Zm-2-1a3.4,3.4,0,0,0-.18,1.11,3.52,3.52,0,0,0,.14,1l1.06-1.07Zm5.7,1.1,1,1a3.85,3.85,0,0,0,.13-1,3.52,3.52,0,0,0-.14-1ZM38.17,38.9l1.36,1.36,1.18-1.18a3.55,3.55,0,0,0-1.36-1.36ZM34.66,39l1.21,1.21,1.28-1.28L36,37.72A3.57,3.57,0,0,0,34.66,39Zm2-1.55,1,1,1-1A3.55,3.55,0,0,0,36.69,37.42Z"/><path class="cls-2" d="M25.63,41.31l2.74-1.81-.22.77,1.77-.83-.34,1.21-2.26.76.06-.46Zm7.11-4.48H31.23v1.05l-8.46.94v3.49l8.34.57.07,1h1.56Z"/><path class="cls-2" d="M25.07,41.25H0V2.48H23.67V3.69H1.2V40H25.08Zm17.68,0V40l21.4,0V3.63L36.47,3.7V2.49l28.86-.06V41.19h-.6Z"/><polygon class="cls-2" points="35.74 10.16 38.02 9.81 31.33 0 25.04 0 31.44 7.39 27.42 7.39 39.85 18.11 35.74 10.16"/><path class="cls-2" d="M40.32,8H40a9.34,9.34,0,0,0-1.54.12S40.36,11,40.42,11c1.91.1,2.7,1.33,2.7,4.36V28.16c0,3.12-.86,4.45-2.95,4.45s-3-1.33-3-4.45V18l-3.29-2.83V27.29c0,5.27,1.9,8.32,6,8.32h.42c4.15,0,6-2.57,6-7.84v-12c0-5.3-2.09-7.8-6.09-7.8"/></g></g></svg>