<?xml version="1.0" encoding="utf-8"?>
<!-- Generator: Adobe Illustrator 24.1.0, SVG Export Plug-In . SVG Version: 6.00 Build 0)  -->
<svg version="1.1" id="Layer_1" xmlns="http://www.w3.org/2000/svg" xmlns:xlink="http://www.w3.org/1999/xlink" x="0px" y="0px"
	 viewBox="0 0 65.3 45" style="enable-background:new 0 0 65.3 45;" xml:space="preserve">
<style type="text/css">
	.st0{fill:#00C4BB;}
</style>
<path id="outline" class="st0" d="M17.7,16.2c0-5.1-2.2-7.6-7.4-7.6H4.9v26.5h3.4V23.9H11l3.2,11.2h3.6l-3.5-11.8C16.5,22.2,17.7,20.1,17.7,16.2z
	 M10.2,20.8l-1.9,0v-9h1.9c2.9,0,3.9,1.2,3.9,4.5C14.1,19.6,13.1,20.8,10.2,20.8z M23,8.6h3.4v26.5H23V8.6z M53.1,35.1V11.8h-3.9
	V8.6h11.3v3.2h-3.9v23.3H53.1z M37.6,36.6c-2.3,0-4.2,1.9-4.2,4.2c0,2.3,1.9,4.2,4.2,4.2c2.3,0,4.2-1.9,4.2-4.2c0,0,0,0,0,0
	C41.9,38.4,40,36.6,37.6,36.6z M36.7,37.4c0.6-0.2,1.3-0.2,2,0l-1,1L36.7,37.4L36.7,37.4z M39,40.8L37.7,42l-1.3-1.4l1.2-1.3
	L39,40.8z M36,37.7l1.2,1.2l-1.3,1.3L34.7,39C35,38.5,35.4,38,36,37.7z M34.2,40.8c0-0.4,0.1-0.8,0.2-1.1l1,1l-1.1,1.1
	C34.3,41.5,34.2,41.1,34.2,40.8z M34.6,42.5l1.3-1.3l1.4,1.4L36,43.8C35.4,43.5,34.9,43.1,34.6,42.5z M36.7,44.1l1.1-1l1,1
	C38.1,44.3,37.3,44.3,36.7,44.1z M39.5,43.8l-1.2-1.2l1.3-1.3l1.2,1.2C40.4,43,40,43.4,39.5,43.8z M41.2,40.8c0,0.3,0,0.7-0.1,1
	l-1-1l1-1C41.2,40.1,41.2,40.5,41.2,40.8z M39.5,40.3l-1.4-1.4l1.2-1.2c0.6,0.3,1,0.8,1.4,1.4L39.5,40.3z M31.2,37.9l-8.5,0.9V40
	H1.2V3.7h22.5V2.5H0v38.8h22.8v1.1l8.3,0.6l0.1,1h1.6v-7h-1.5V37.9z M29.6,40.7l-2.3,0.8l0.1-0.5l-1.8,0.4l2.7-1.8l-0.2,0.8l1.8-0.8
	L29.6,40.7z M65.3,2.4v38.8h-0.6l-22,0.1V40h21.4V3.6L36.5,3.7V2.5L65.3,2.4z M31.4,7.4L25,0h6.3L38,9.8l-2.3,0.3l4.1,8L27.4,7.4
	H31.4z M40,8h0.3l-0.1,0c4,0,6.1,2.5,6.1,7.8v12c0,5.3-1.8,7.8-6,7.8h-0.4c-4.1,0-6-3-6-8.3V15.2l3.3,2.8v10.2c0,3.1,0.9,4.5,3,4.5
	c2.1,0,3-1.3,3-4.5V15.4c0-3-0.8-4.3-2.7-4.4c-0.1,0-2-2.9-2-2.9C39,8,39.5,8,40,8z"/>
</svg>
