<?xml version="1.0" encoding="UTF-8" standalone="no"?>
<!-- Generator: Adobe Illustrator 24.1.0, SVG Export Plug-In . SVG Version: 6.00 Build 0)  -->

<svg
   version="1.1"
   id="Layer_1"
   x="0px"
   y="0px"
   viewBox="0 0 24 24"
   style="enable-background:new 0 0 24 24;"
   xml:space="preserve"
   sodipodi:docname="tiktok-icon.svg"
   inkscape:version="1.1.2 (0a00cf5339, 2022-02-04)"
   xmlns:inkscape="http://www.inkscape.org/namespaces/inkscape"
   xmlns:sodipodi="http://sodipodi.sourceforge.net/DTD/sodipodi-0.dtd"
   xmlns="http://www.w3.org/2000/svg"
   xmlns:svg="http://www.w3.org/2000/svg"><defs
   id="defs555" /><sodipodi:namedview
   id="namedview553"
   pagecolor="#ffffff"
   bordercolor="#666666"
   borderopacity="1.0"
   inkscape:pageshadow="2"
   inkscape:pageopacity="0.0"
   inkscape:pagecheckerboard="0"
   showgrid="false"
   inkscape:zoom="6.5416667"
   inkscape:cx="27.515924"
   inkscape:cy="-8.1783439"
   inkscape:window-width="960"
   inkscape:window-height="993"
   inkscape:window-x="103"
   inkscape:window-y="103"
   inkscape:window-maximized="0"
   inkscape:current-layer="Layer_1" />
<style
   type="text/css"
   id="style546">
	.st0{fill:#FFFFFF;}
</style>
<g
   id="Layer_2_1_">
	<g
   id="Site_1">
		<path
   class="st0"
   d="M 12,0 C 8.7,0 8.3,0 7.1,0.1 3.3,0.3 0.3,3.3 0.1,7.1 0,8.3 0,8.7 0,12 c 0,3.3 0,3.7 0.1,5 0.2,3.8 3.2,6.8 7,7 H 12 c 3.2,0 3.7,0 4.9,-0.1 3.8,-0.2 6.8,-3.2 7,-7 C 24,15.7 24,15.3 24,12 24,8.7 24,8.3 23.9,7.1 23.7,3.3 20.7,0.3 16.9,0.1 15.7,0 15.3,0 12,0 Z m 0,1.4 c 3.4,0 3.4,0 4.7,0.1 3.1,0.1 5.6,2.7 5.8,5.8 0.1,1.2 0.1,1.2 0.1,4.7 0,3.5 0,3.5 -0.1,4.7 -0.1,3.1 -2.6,5.6 -5.8,5.8 -1.2,0.1 -1.2,0.1 -4.7,0.1 -3.5,0 -3.5,0 -4.7,-0.1 C 4.2,22.4 1.7,19.8 1.5,16.7 1.4,15.5 1.4,15.5 1.4,12.1 1.4,8.7 1.4,8.6 1.5,7.4 1.6,4.3 4.1,1.8 7.3,1.6 8.5,1.4 8.5,1.4 12,1.4 Z"
   id="path548"
   sodipodi:nodetypes="sccsccsccsccssccsccsccsccs" /><path
   d="M 7.0282059,15.176593 A 2.7908755,2.7908755 0 0 0 9.8190814,17.968468 2.8588726,2.8588726 0 0 0 12.71895,15.211589 L 12.75093,2.6451496 h 2.577885 a 4.7997863,4.7997863 0 0 0 4.421801,4.2878086 v 2.9948664 0 c -0.146993,0.013992 -0.294987,0.021978 -0.442979,0.021978 A 4.7997863,4.7997863 0 0 1 15.287823,7.7779005 V 15.177571 A 5.4687561,5.4687561 0 1 1 9.8190644,9.7088166 c 0.113994,0 0.2259896,0.00998 0.3379836,0.016995 v 2.6998814 a 2.9088704,2.9088704 0 0 0 -0.3379836,-0.034 2.7908755,2.7908755 0 0 0 -2.7908756,2.784878 z"
   id="path766"
   style="fill:#ffffff;fill-opacity:1;stroke-width:0.999954" />
	</g>
</g>
</svg>
