<?xml version="1.0" encoding="utf-8"?>
<!-- Generator: Adobe Illustrator 24.1.0, SVG Export Plug-In . SVG Version: 6.00 Build 0)  -->
<svg version="1.1" id="Layer_1" xmlns="http://www.w3.org/2000/svg" xmlns:xlink="http://www.w3.org/1999/xlink" x="0px" y="0px"
	 viewBox="0 0 24 24" style="enable-background:new 0 0 24 24;" xml:space="preserve">
<style type="text/css">
	.st0{fill:#FFFFFF;}
</style>
<g id="Layer_2_1_">
	<g id="Site_1">
		<path class="st0" d="M19.8,7.2c-0.6,0.3-1.2,0.4-1.8,0.5c0.7-0.4,1.2-1,1.4-1.8c-0.6,0.4-1.3,0.6-2,0.8c-1.2-1.3-3.2-1.3-4.5-0.1
			c-0.8,0.8-1.2,1.9-0.9,3c-2.6-0.1-5-1.3-6.6-3.3c-0.8,1.5-0.4,3.3,1,4.3c-0.5,0-1-0.2-1.4-0.4c0,1.5,1.1,2.9,2.6,3.2
			c-0.5,0.1-1,0.1-1.4,0.1c0.4,1.3,1.6,2.2,3,2.2c-1.3,1-3,1.5-4.7,1.3c4.2,2.7,9.8,1.5,12.5-2.8c1-1.6,1.5-3.4,1.4-5.2
			C18.8,8.4,19.3,7.8,19.8,7.2L19.8,7.2z M12,0C8.7,0,8.3,0,7.1,0.1c-3.8,0.2-6.8,3.2-7,7C0,8.3,0,8.7,0,12s0,3.7,0.1,5
			c0.2,3.8,3.2,6.8,7,7c1.3,0,1.7,0,4.9,0s3.7,0,4.9-0.1c3.8-0.2,6.8-3.2,7-7C24,15.7,24,15.3,24,12s0-3.7-0.1-4.9
			c-0.2-3.8-3.2-6.8-7-7C15.7,0,15.3,0,12,0z M12,1.4c3.4,0,3.4,0,4.7,0.1c3.1,0.1,5.6,2.7,5.8,5.8c0.1,1.2,0.1,1.2,0.1,4.7
			s0,3.5-0.1,4.7c-0.1,3.1-2.6,5.6-5.8,5.8c-1.2,0.1-1.2,0.1-4.7,0.1s-3.5,0-4.7-0.1c-3.1-0.1-5.6-2.7-5.8-5.8
			c-0.1-1.2-0.1-1.2-0.1-4.6s0-3.5,0.1-4.7c0.1-3.1,2.6-5.6,5.8-5.8C8.5,1.4,8.5,1.4,12,1.4z"/>
	</g>
</g>
</svg>
