<svg xmlns="http://www.w3.org/2000/svg" viewBox="0 0 24 24"><defs><style>.cls-1{fill:#fff;}</style></defs><g id="Layer_2" data-name="Layer 2"><g id="Site_1" data-name="Site 1"><path class="cls-1" d="M12,2.16c3.2,0,3.58,0,4.85.07,3.25.15,4.77,1.69,4.92,4.92.06,1.27.07,1.65.07,4.85s0,3.59-.07,4.85c-.15,3.23-1.66,4.77-4.92,4.92-1.27.06-1.64.07-4.85.07s-3.58,0-4.85-.07c-3.26-.15-4.77-1.7-4.92-4.92-.06-1.27-.07-1.64-.07-4.85s0-3.58.07-4.85C2.38,3.92,3.9,2.38,7.15,2.23,8.42,2.18,8.8,2.16,12,2.16Zm7.76,5a6.61,6.61,0,0,1-1.83.5,3.19,3.19,0,0,0,1.4-1.76,6.5,6.5,0,0,1-2,.77,3.19,3.19,0,0,0-5.43,2.9A9,9,0,0,1,5.32,6.28a3.19,3.19,0,0,0,1,4.25,3.2,3.2,0,0,1-1.44-.4,3.18,3.18,0,0,0,2.55,3.16A3.31,3.31,0,0,1,6,13.35a3.2,3.2,0,0,0,3,2.21,6.45,6.45,0,0,1-4.72,1.31,9.06,9.06,0,0,0,13.93-8A6.57,6.57,0,0,0,19.76,7.19ZM12,0C8.74,0,8.33,0,7.06.07a7.34,7.34,0,0,0-7,7C0,8.33,0,8.74,0,12S0,15.67.07,17a7.32,7.32,0,0,0,7,7C8.33,24,8.74,24,12,24s3.67,0,4.94-.07a7.34,7.34,0,0,0,7-7C24,15.67,24,15.26,24,12s0-3.67-.07-4.94a7.34,7.34,0,0,0-7-7C15.67,0,15.26,0,12,0Z"/></g></g></svg>