<?xml version="1.0" encoding="utf-8"?>
<!-- Generator: Adobe Illustrator 24.1.0, SVG Export Plug-In . SVG Version: 6.00 Build 0)  -->
<svg version="1.1" id="Layer_1" xmlns="http://www.w3.org/2000/svg" xmlns:xlink="http://www.w3.org/1999/xlink" x="0px" y="0px"
	 viewBox="0 0 22.5 22.5" style="enable-background:new 0 0 22.5 22.5;" xml:space="preserve">
<style type="text/css">
	.st0{fill:#FFFFFF;}
</style>
<g id="Layer_2_1_">
	<g id="Site_1">
		<path class="st0" d="M11.2,0.1c-3,0-3.4,0-4.6,0.1c-3.5,0.2-6.4,3-6.5,6.5c-0.1,1.2-0.1,1.6-0.1,4.6s0,3.4,0.1,4.6
			c0.2,3.5,3,6.4,6.5,6.5c1.2,0.1,1.6,0.1,4.6,0.1s3.4,0,4.6-0.1c3.5-0.2,6.4-3,6.5-6.5c0.1-1.2,0.1-1.6,0.1-4.6s0-3.4-0.1-4.6
			c-0.2-3.5-3-6.4-6.5-6.5C14.8,0.1,14.4,0.1,11.2,0.1z M11.4,1.5c3.2,0,3.2,0,4.4,0.1C18.5,1.7,21,4.1,21,7c0,1.1,0.1,1.2,0.1,4.3
			s0,3.2-0.1,4.4C21,18.5,18.5,21,15.7,21c-1.1,0-1.2,0.1-4.4,0.1S8.1,21,7,21c-2.9-0.1-5.3-2.5-5.4-5.4c-0.1-1.1-0.1-1.1-0.1-4.3
			s0-3.2,0.1-4.4C1.7,4.1,4,1.7,7,1.6C8.1,1.5,8.2,1.5,11.4,1.5z M16,11.3L8.5,7.2v8.1L16,11.3z"/>
	</g>
</g>
</svg>
